<?xml version="1.0" encoding="UTF-8" standalone="no"?>
<svg
   xmlns:dc="http://purl.org/dc/elements/1.1/"
   xmlns:cc="http://creativecommons.org/ns#"
   xmlns:rdf="http://www.w3.org/1999/02/22-rdf-syntax-ns#"
   xmlns:svg="http://www.w3.org/2000/svg"
   xmlns="http://www.w3.org/2000/svg"
   xmlns:sodipodi="http://sodipodi.sourceforge.net/DTD/sodipodi-0.dtd"
   xmlns:inkscape="http://www.inkscape.org/namespaces/inkscape"
   version="1.1"
   id="svg3775"
   xml:space="preserve"
   width="1988.316"
   height="392.49725"
   viewBox="0 0 1988.316 392.49725"
   sodipodi:docname="A0040690_orderMock_13092310_2.svg"
   inkscape:version="0.92.2 (5c3e80d, 2017-08-06)"><metadata
     id="metadata3781"><rdf:RDF><cc:Work
         rdf:about=""><dc:format>image/svg+xml</dc:format><dc:type
           rdf:resource="http://purl.org/dc/dcmitype/StillImage" /><dc:title></dc:title></cc:Work></rdf:RDF></metadata><defs
     id="defs3779"><clipPath
       clipPathUnits="userSpaceOnUse"
       id="clipPath3793"><path
         d="M 0,2000 H 2000 V 0 H 0 Z"
         id="path3791"
         inkscape:connector-curvature="0" /></clipPath></defs><sodipodi:namedview
     pagecolor="#ffffff"
     bordercolor="#666666"
     borderopacity="1"
     objecttolerance="10"
     gridtolerance="10"
     guidetolerance="10"
     inkscape:pageopacity="0"
     inkscape:pageshadow="2"
     inkscape:window-width="2560"
     inkscape:window-height="1377"
     id="namedview3777"
     showgrid="false"
     inkscape:zoom="1.1039492"
     inkscape:cx="994.15802"
     inkscape:cy="196.24863"
     inkscape:window-x="-8"
     inkscape:window-y="-8"
     inkscape:window-maximized="1"
     inkscape:current-layer="g3783" /><g
     id="g3783"
     inkscape:groupmode="layer"
     inkscape:label="A0040690_orderMock_13092310_2"
     transform="matrix(1.3333333,0,0,-1.3333333,-339.17519,1529.5816)"><g
       id="g3787"><g
         id="g3789"
         clip-path="url(#clipPath3793)"><g
           id="g3795"
           transform="translate(318.4204,960.5996)"><path
             d="m 0,0 v 26.41 h 89.995 v -48.399 c 0,-10.576 -3.78,-19.607 -11.336,-27.088 -7.557,-7.557 -16.624,-11.333 -27.2,-11.333 h -76.961 c -10.58,0 -19.646,3.776 -27.2,11.333 -7.556,7.481 -11.337,16.512 -11.337,27.088 v 77.073 c 0,10.58 3.781,19.646 11.337,27.203 7.554,7.557 16.62,11.334 27.2,11.334 h 76.961 c 10.576,0 19.643,-3.777 27.2,-11.334 C 86.215,74.73 89.995,65.664 89.995,55.084 V 45.679 H 55.311 v 8.954 c 0,2.793 -1.437,4.192 -4.306,4.192 h -76.053 c -2.872,0 -4.306,-1.399 -4.306,-4.192 v -76.168 c 0,-2.796 1.434,-4.191 4.306,-4.191 h 76.053 c 2.869,0 4.306,1.395 4.306,4.191 V 0 Z"
             style="fill:#ffffff;fill-opacity:1;fill-rule:nonzero;stroke:none"
             id="path3797"
             inkscape:connector-curvature="0" /></g><path
           d="m 465.201,900.189 h -34.119 v 106.089 h 34.119 z"
           style="fill:#ffffff;fill-opacity:1;fill-rule:nonzero;stroke:none"
           id="path3799"
           inkscape:connector-curvature="0" /><g
           id="g3801"
           transform="translate(548.5039,934.4199)"><path
             d="M 0,0 C 0.833,0 1.437,0.678 1.816,2.04 L 21.762,71.858 H 57.805 L 33.776,-5.78 C 30.677,-14.699 27.43,-21.271 24.028,-25.502 19.495,-31.322 13.902,-34.23 7.254,-34.23 h -26.973 c -6.652,0 -12.281,2.908 -16.889,8.728 -3.399,4.306 -6.613,10.879 -9.633,19.722 l -23.463,77.638 h 34.115 L -14.281,2.04 C -13.827,0.678 -13.222,0 -12.465,0 Z"
             style="fill:#ffffff;fill-opacity:1;fill-rule:nonzero;stroke:none"
             id="path3803"
             inkscape:connector-curvature="0" /></g><g
           id="g3805"
           transform="translate(655.9507,980.6611)"><path
             d="m 0,0 c -1.286,0 -1.924,-0.642 -1.924,-1.925 v -16.32 h 37.855 v 16.32 C 35.931,-0.642 35.286,0 34.003,0 Z m 70.046,-29.693 c 0,-1.968 -0.717,-3.705 -2.155,-5.215 -1.434,-1.438 -3.171,-2.155 -5.211,-2.155 H -1.924 v -17.001 c 0,-1.284 0.638,-1.925 1.924,-1.925 h 34.003 c 1.283,0 1.928,0.641 1.928,1.925 v 7.708 h 34.115 v -7.593 c 0,-7.33 -2.605,-13.564 -7.819,-18.702 -5.139,-5.215 -11.373,-7.821 -18.703,-7.821 H -9.521 c -7.329,0 -13.563,2.606 -18.698,7.821 -5.215,5.138 -7.823,11.372 -7.823,18.702 v 53.044 c 0,7.326 2.608,13.56 7.823,18.703 5.135,5.21 11.369,7.819 18.698,7.819 h 53.045 c 7.33,0 13.564,-2.609 18.703,-7.819 5.214,-5.143 7.819,-11.377 7.819,-18.703 z"
             style="fill:#ffffff;fill-opacity:1;fill-rule:nonzero;stroke:none"
             id="path3807"
             inkscape:connector-curvature="0" /></g><g
           id="g3809"
           transform="translate(820.6367,944.0518)"><path
             d="m 0,0 h -33.664 c -2.796,0 -4.191,-1.397 -4.191,-4.194 v -10.991 c 0,-2.044 1.02,-3.063 3.059,-3.063 h 31.737 c 2.039,0 3.059,1.019 3.059,3.063 z m -45.452,-43.862 c -7.329,0 -13.563,2.605 -18.698,7.82 -5.215,5.139 -7.824,11.372 -7.824,18.702 V 8.047 c 0.53,6.648 4.119,10.238 10.768,10.767 H 0 v 17.002 c 0,1.287 -0.645,1.928 -1.928,1.928 h -31.736 c -1.283,0 -1.924,-0.641 -1.924,-1.928 v -5.438 h -34.119 v 5.326 c 0,7.326 2.609,13.561 7.823,18.703 5.135,5.211 11.369,7.82 18.699,7.82 H 7.593 c 7.329,0 13.564,-2.609 18.702,-7.82 5.215,-5.142 7.82,-11.377 7.82,-18.703 V -43.862 H 0 v 9.748 c -4.385,-6.501 -10.541,-9.748 -18.475,-9.748 z"
             style="fill:#ffffff;fill-opacity:1;fill-rule:nonzero;stroke:none"
             id="path3811"
             inkscape:connector-curvature="0" /></g><g
           id="g3813"
           transform="translate(938.855,932.0381)"><path
             d="M 0,0 C 1.283,0 1.924,0.642 1.924,1.928 V 74.24 H 36.381 V 1.928 C 36.381,0.642 37.023,0 38.309,0 h 25.388 c 1.282,0 1.928,0.642 1.928,1.928 V 74.24 H 99.739 V -5.326 c 0,-7.33 -2.606,-13.564 -7.82,-18.702 -5.214,-5.215 -11.448,-7.821 -18.702,-7.821 H 41.823 c -4.688,0 -9.067,1.172 -13.15,3.514 -4.003,2.343 -7.178,5.478 -9.52,9.409 -2.342,-3.931 -5.517,-7.066 -9.521,-9.409 -4.079,-2.342 -8.461,-3.514 -13.146,-3.514 h -31.397 c -7.254,0 -13.488,2.606 -18.699,7.821 -5.214,5.214 -7.824,11.448 -7.824,18.702 V 74.24 h 34.119 V 1.928 C -27.315,0.642 -26.713,0 -25.502,0 Z"
             style="fill:#ffffff;fill-opacity:1;fill-rule:nonzero;stroke:none"
             id="path3815"
             inkscape:connector-curvature="0" /></g><g
           id="g3817"
           transform="translate(1133.2344,944.0518)"><path
             d="m 0,0 h -33.665 c -2.796,0 -4.19,-1.397 -4.19,-4.194 v -10.991 c 0,-2.044 1.019,-3.063 3.059,-3.063 H -3.06 c 2.039,0 3.06,1.019 3.06,3.063 z m -45.452,-43.862 c -7.329,0 -13.564,2.605 -18.698,7.82 -5.215,5.139 -7.824,11.372 -7.824,18.702 V 8.047 c 0.53,6.648 4.119,10.238 10.767,10.767 H 0 v 17.002 c 0,1.287 -0.646,1.928 -1.928,1.928 h -31.737 c -1.282,0 -1.924,-0.641 -1.924,-1.928 v -5.438 h -34.118 v 5.326 c 0,7.326 2.608,13.561 7.823,18.703 5.135,5.211 11.369,7.82 18.698,7.82 H 7.593 c 7.329,0 13.563,-2.609 18.702,-7.82 5.214,-5.142 7.819,-11.377 7.819,-18.703 V -43.862 H 0 v 9.748 c -4.386,-6.501 -10.541,-9.748 -18.476,-9.748 z"
             style="fill:#ffffff;fill-opacity:1;fill-rule:nonzero;stroke:none"
             id="path3819"
             inkscape:connector-curvature="0" /></g><g
           id="g3821"
           transform="translate(1261.7617,1006.2783)"><path
             d="m 0,0 h 34.003 v -127.058 c 0,-7.254 -2.608,-13.448 -7.823,-18.587 -5.139,-5.214 -11.333,-7.82 -18.587,-7.82 h -52.929 c -7.254,0 -13.452,2.569 -18.587,7.708 -5.215,5.211 -7.823,11.445 -7.823,18.699 v 12.357 h 34.003 v -7.481 c 0,-1.208 0.641,-1.816 1.928,-1.816 h 33.887 c 1.283,0 1.928,0.608 1.928,1.816 v 29.809 c -5.062,-4.761 -11.034,-7.143 -17.909,-7.143 h -26.973 c -7.254,0 -13.488,2.57 -18.702,7.708 -5.139,5.214 -7.708,11.449 -7.708,18.703 V 0 h 34.003 v -64.831 c 0,-1.211 0.601,-1.814 1.812,-1.814 h 34.003 c 0.829,0 1.323,0.491 1.474,1.471 z"
             style="fill:#ffffff;fill-opacity:1;fill-rule:nonzero;stroke:none"
             id="path3823"
             inkscape:connector-curvature="0" /></g><g
           id="g3825"
           transform="translate(1377.8252,1054.2202)"><path
             d="m 0,0 v -115.267 c 0,-2.796 1.435,-4.194 4.31,-4.194 h 85.004 v -34.796 H 3.855 c -10.58,0 -19.646,3.776 -27.203,11.333 -7.556,7.556 -11.333,16.623 -11.333,27.203 V 0 Z"
             style="fill:#f28a2c;fill-opacity:1;fill-rule:nonzero;stroke:none"
             id="path3827"
             inkscape:connector-curvature="0" /></g><path
           d="m 1524.378,900.189 h -34.118 v 106.089 h 34.118 z"
           style="fill:#f28a2c;fill-opacity:1;fill-rule:nonzero;stroke:none"
           id="path3829"
           inkscape:connector-curvature="0" /><g
           id="g3831"
           transform="translate(1573.7939,942.9209)"><path
             d="m 0,0 c -7.254,0 -13.528,2.721 -18.814,8.158 -5.29,5.365 -7.936,11.712 -7.936,19.041 v 10.318 c 0,7.174 2.646,13.296 7.936,18.359 5.213,4.988 11.484,7.481 18.814,7.481 h 48.737 c 7.326,0 13.561,-2.608 18.703,-7.819 5.21,-5.142 7.82,-11.377 7.82,-18.703 V 29.239 H 45.451 v 8.05 c 0,1.813 -0.872,2.721 -2.609,2.721 H 10.313 C 8.5,40.01 7.592,39.102 7.592,37.289 V 24.821 c 0,-0.53 0.191,-0.984 0.57,-1.362 0.374,-0.379 0.828,-0.565 1.359,-0.565 h 43.523 c 7.329,0 13.6,-2.606 18.814,-7.821 5.139,-5.214 7.708,-11.448 7.708,-18.702 v -12.58 c 0,-7.254 -2.569,-13.488 -7.708,-18.702 -5.214,-5.215 -11.485,-7.82 -18.814,-7.82 H 0 c -7.254,0 -13.488,2.605 -18.703,7.82 -5.211,5.214 -7.819,11.448 -7.819,18.702 v 7.593 H 7.592 v -5.892 c 0,-1.816 0.908,-2.721 2.721,-2.721 h 32.529 c 1.737,0 2.609,0.905 2.609,2.721 v 12.692 c 0,0.529 -0.155,0.944 -0.454,1.247 C 44.619,-0.191 44.165,0 43.635,0 Z"
             style="fill:#f28a2c;fill-opacity:1;fill-rule:nonzero;stroke:none"
             id="path3833"
             inkscape:connector-curvature="0" /></g><g
           id="g3835"
           transform="translate(1674.8945,1006.2783)"><path
             d="m 0,0 h 18.36 v 37.174 l 34.116,9.975 V 0 H 70.724 V -26.977 H 52.476 v -79.112 H 18.36 v 79.112 H 0 Z"
             style="fill:#f28a2c;fill-opacity:1;fill-rule:nonzero;stroke:none"
             id="path3837"
             inkscape:connector-curvature="0" /></g><g
           id="g3839"
           transform="translate(448.1411,1064.4043)"><path
             d="M 0,0 5.597,-17.225 H 23.708 L 9.056,-27.871 14.653,-45.096 0,-34.45 l -14.652,-10.646 5.596,17.225 -14.652,10.646 h 18.111 z"
             style="fill:#f28a2c;fill-opacity:1;fill-rule:nonzero;stroke:none"
             id="path3841"
             inkscape:connector-curvature="0" /></g><g
           id="g3843"
           transform="translate(1522.2227,1051.9531)"><path
             d="m 0,0 c 4.155,-4.079 6.234,-9.066 6.234,-14.962 0,-5.816 -2.079,-10.803 -6.234,-14.958 -4.079,-4.083 -9.066,-6.122 -14.962,-6.122 -5.819,0 -10.807,2.039 -14.962,6.122 -4.079,4.155 -6.118,9.142 -6.118,14.958 0,5.896 2.039,10.883 6.118,14.962 4.155,4.155 9.143,6.234 14.962,6.234 C -9.066,6.234 -4.079,4.155 0,0"
             style="fill:#f28a2c;fill-opacity:1;fill-rule:nonzero;stroke:none"
             id="path3845"
             inkscape:connector-curvature="0" /></g><g
           id="g3847"
           transform="translate(1487.918,1056.333)"><path
             d="m 0,0 c 1.445,1.447 2.984,2.683 4.598,3.742 l -18.961,7.475 -15.41,6.07 c -5.191,1.878 -10.437,3.605 -15.651,5.414 l -31.316,10.725 -31.721,9.4 -15.86,4.665 -16.031,4.034 -32.063,7.975 -32.34,6.686 c -5.394,1.078 -10.76,2.302 -16.176,3.26 l -16.275,2.715 c -86.711,14.972 -174.734,20.36 -262.289,18.254 -43.799,-0.87 -87.491,-4.169 -130.963,-8.867 -43.472,-4.757 -86.728,-11.223 -129.637,-19.382 -42.909,-8.157 -85.47,-18.007 -127.561,-29.495 -21.06,-5.687 -41.967,-11.921 -62.734,-18.565 -20.75,-6.686 -41.398,-13.721 -61.659,-21.746 20.487,7.421 41.314,13.833 62.224,19.894 20.925,6.017 41.965,11.618 63.135,16.667 42.309,10.212 84.996,18.765 127.932,25.617 42.934,6.853 86.114,12.003 129.396,15.445 43.28,3.383 86.667,5.369 130.023,4.943 86.671,-0.482 173.268,-8.397 257.884,-25.608 l 15.878,-3.131 c 5.281,-1.095 10.505,-2.455 15.759,-3.668 l 31.466,-7.479 31.124,-8.732 15.541,-4.4 15.352,-5.02 30.667,-10.079 30.199,-11.358 c 5.024,-1.91 10.078,-3.738 15.074,-5.714 l 14.816,-6.356 18.09,-7.754 c -0.285,1.626 -0.444,3.3 -0.444,5.033 0,7.569 2.668,14.076 7.933,19.34"
             style="fill:#f28a2c;fill-opacity:1;fill-rule:nonzero;stroke:none"
             id="path3849"
             inkscape:connector-curvature="0" /></g></g></g></g></svg>
